<!--?xml version="1.0" encoding="utf-8"?-->
<!-- Generator: Adobe Illustrator 18.1.1, SVG Export Plug-In . SVG Version: 6.00 Build 0)  -->

<svg version="1.1" id="_x31_0" xmlns="http://www.w3.org/2000/svg" xmlns:xlink="http://www.w3.org/1999/xlink" x="0px" y="0px" viewBox="0 0 512 512" style="width: 256px; height: 256px; opacity: 1;" xml:space="preserve">
<style type="text/css">
	.st0{fill:#374149;}
</style>
<g>
	<path class="st0" d="M476.667,183.395c-11.447-11.918-25.406-21.014-40.693-26.501c-1.098-19.054-5.566-37.166-12.626-53.943
		c-17.485-42.342-51.826-75.666-94.478-91.894C310.523,4.001,290.683,0,269.983,0c-39.828,0-78.407,14.273-108.514,40.302
		c-18.817,16.229-33.87,36.696-43.828,59.433c-28.542,4.549-54.258,17.956-74.644,38.89c-25.406,26.11-38.813,60.609-37.871,97.067
		c0.942,35.363,15.838,68.292,41.791,92.833c25.482,24.073,58.806,37.323,93.855,37.323h47.434v-55.903h-47.434
		c-42.814,0-78.568-34.031-79.662-75.818c-0.628-21.252,7.213-41.321,22.033-56.455c14.816-15.21,34.655-23.602,55.822-23.602
		c4.472,0,8.94,0.394,13.331,1.099l6.359,1.094l1.01,0.199l0.08,0.038h0.158l1.175-7.603c8.469-53.866,54.257-92.913,108.905-92.913
		c60.765,0,110.24,49.475,110.24,110.24c0,1.413,0,2.822-0.076,4.862l-0.158,2.584c-0.076,1.256-0.237,2.512-0.314,3.687
		l-0.471,3.53c-1.412,11.134-3.058,18.503-3.997,22.894c-0.942,4.625-1.413,6.509-0.628,8.939c1.252,4.154,4.706,6.899,9.407,6.899
		c1.726-0.157,3.296-0.705,4.786-1.726c0.627-0.39,3.84-2.665,6.351-6.818c0.31-0.471,0.624-1.022,0.938-1.57l0.471-0.785
		c0.942-1.489,1.883-2.274,2.669-2.274c14.188,0,27.362,5.566,37.243,15.762c9.801,10.191,14.973,23.679,14.426,37.871
		c-0.942,27.442-24.778,49.866-53.082,49.866H323.85v55.406v0.341l0,0v0.157h73.939c27.913,0,54.57-10.429,74.958-29.482
		c20.934-19.602,33.086-45.946,34.107-74.326C507.872,232.556,497.21,204.566,476.667,183.395z" style="fill: rgb(75, 75, 75);"></path>
	<path class="st0" d="M332.318,397.525H299.78c-4.001,0-7.294-3.53-7.294-7.841v-23.836v-55.903v-53.71
		c0-4.391-3.369-7.917-7.37-7.917h-58.178c-4.077,0-7.37,3.526-7.37,7.917v53.71v55.903v23.836c0,4.311-3.293,7.841-7.37,7.841
		h-32.538c-6.118,0-9.567,7.446-5.881,12.546l10.662,13.878l34.575,44.69l31.129,40.222c1.49,2.041,3.606,3.139,5.881,3.139
		c2.194,0,4.391-1.098,5.804-3.139l31.126-40.222l34.578-44.69l10.662-13.878C341.886,404.971,338.436,397.525,332.318,397.525z" style="fill: rgb(75, 75, 75);"></path>
</g>
</svg>
