<!--?xml version="1.0" encoding="utf-8"?-->
<!-- Generator: Adobe Illustrator 18.1.1, SVG Export Plug-In . SVG Version: 6.00 Build 0)  -->

<svg version="1.1" id="_x32_" xmlns="http://www.w3.org/2000/svg" xmlns:xlink="http://www.w3.org/1999/xlink" x="0px" y="0px" viewBox="0 0 512 512" style="width: 256px; height: 256px; opacity: 1;" xml:space="preserve">
<style type="text/css">
	.st0{fill:#4B4B4B;}
</style>
<g>
	<path class="st0" d="M507.346,80.023c-4.514-10.646-11.982-19.632-21.419-26.01c-9.408-6.37-20.911-10.118-33.091-10.118h-38.294
		h-21.334h-1.294H60.613c-6.856,0-13.501,1.406-19.513,3.952c-9.022,3.825-16.63,10.147-22.03,18.128
		c-5.4,7.974-8.579,17.74-8.565,28.035v93.732c-0.007,27.831,5.654,54.46,15.877,78.642c15.357,36.283,40.945,67.082,73.171,88.858
		c32.219,21.777,71.209,34.525,112.97,34.511c27.832,0.007,54.467-5.646,78.642-15.877c36.284-15.357,67.082-40.945,88.866-73.171
		c4.177-6.181,8.016-12.622,11.51-19.281c0.556,0.014,1.105,0.056,1.667,0.056c16.341,0.007,32.022-3.326,46.246-9.345
		c21.356-9.036,39.441-24.062,52.245-43.012c12.804-18.929,20.314-41.909,20.3-66.428c0-18.268,0-33.168,0-43.512
		c0-10.344,0-16.11,0-16.11C512,94.951,510.341,87.111,507.346,80.023z M369.286,187.741c0,21.706-4.381,42.267-12.306,61.013
		c-11.882,28.099-31.797,52.083-56.822,68.995c-25.053,16.896-55.092,26.741-87.635,26.755c-21.706,0-42.274-4.381-61.013-12.313
		c-28.105-11.876-52.083-31.79-68.994-56.815c-16.912-25.054-26.755-55.093-26.755-87.635V94.009c0-0.724,0.126-1.315,0.365-1.877
		c0.352-0.844,0.998-1.632,1.786-2.159c0.801-0.528,1.617-0.809,2.7-0.823h185.832v42.513l-38.28,34.659l1.083-0.978
		c-6.835,6.188-10.73,14.978-10.73,24.204v41.177c-0.014,8.965,3.678,17.235,9.563,23.092c5.857,5.886,14.119,9.577,23.092,9.564
		h64.016c8.972,0.014,17.235-3.678,23.092-9.564c5.886-5.857,9.577-14.126,9.564-23.092v-41.177c0-9.226-3.895-18.016-10.731-24.204
		l-38.35-34.736V89.15h90.524V187.741z M263.18,160.113l32.233,29.181l0.112,0.254v41.177l-0.099,0.232l-0.239,0.099h-64.016
		l-0.239-0.099l-0.092-0.232v-41.177l0.112-0.254L263.18,160.113z M466.745,119.182c0,10.343,0,25.244,0,43.512
		c0,10.21-2.054,19.836-5.766,28.612c-5.569,13.17-14.921,24.442-26.664,32.374c-7.566,5.098-16.068,8.797-25.23,10.808
		c3.558-15.02,5.457-30.672,5.457-46.746V89.15h38.294c1.983,0.014,3.755,0.394,5.415,1.083c2.461,1.04,4.627,2.834,6.132,5.062
		c1.504,2.25,2.356,4.803,2.363,7.763C466.745,103.058,466.745,108.839,466.745,119.182z" style="fill: rgb(75, 75, 75);"></path>
	<rect x="0" y="422.857" class="st0" width="425.048" height="45.248" style="fill: rgb(75, 75, 75);"></rect>
</g>
</svg>
