<!--?xml version="1.0" encoding="utf-8"?-->
<!-- Generator: Adobe Illustrator 24.1.1, SVG Export Plug-In . SVG Version: 6.00 Build 0)  -->
<svg version="1.1" id="_x31_0" xmlns="http://www.w3.org/2000/svg" xmlns:xlink="http://www.w3.org/1999/xlink" x="0px" y="0px" viewBox="0 0 512 512" style="width: 256px; height: 256px; opacity: 1;" xml:space="preserve">
<style type="text/css">
	.st0{fill:#374149;}
</style>
<g>
	<path class="st0" d="M506.725,93.229l-0.766-0.84l-0.458-0.534l-1.378-1.223l-0.305-0.305l-0.383-0.308
		c-3.894-2.981-8.863-4.813-14.136-4.813H22.621c-3.746,0.074-7.262,0.84-10.621,2.598l-0.461,0.305l-2.215,1.379l-0.766,0.531
		l-1.453,1.301l-0.61,0.535l-1.301,1.605l-0.152,0.153C1.988,97.28,0,102.018,0,107.366V404.63c0,2.293,0.383,4.203,0.84,5.656
		c0.996,3.894,3.058,7.336,5.886,10.086l0.226,0.227l1.149,0.918l0.914,0.766l1.379,0.762l0.61,0.383
		c3.058,1.836,7.031,3.367,11.691,3.367h466.604c3.441,0,6.343-0.766,8.636-1.762l0.535-0.23l0.23-0.078l0.84-0.305l0.84-0.454
		l5.809-3.366v-1.301l1.297-1.524l0.309-0.386l0.226-0.379c2.445-3.363,3.977-7.714,3.977-12.378V107.366
		c0.074-5.199-1.914-10.238-5.199-13.984C506.799,93.307,506.799,93.307,506.725,93.229z M491.33,104.952l-0.657,0.582l-1.832,1.453
		l-1.453,1.145L300.933,259.666l-4.508,3.668l-1.758,1.375l-6.192,5.043l-18.035,14.671l-3.285,2.294v-0.078
		c-3.285,2.297-7.183,3.442-11.156,3.442c-3.977,0-7.95-1.145-11.157-3.442v0.078l-3.363-2.294l-17.957-14.594l-6.27-5.042
		l-1.758-1.454l-4.43-3.594L24.683,108.131l-1.527-1.226l-1.836-1.45l-0.152-0.152l-0.371-0.266l-0.106-0.149l0.094-0.046
		l0.078-0.074l0.762-0.23l0.996-0.226h466.678c0.722,0,1.293,0.222,1.808,0.504C491.181,104.866,491.248,104.889,491.33,104.952z
		 M22.925,387.478V126.471L158.644,236.81l39.16,31.898L85.757,344.877L22.925,387.478z M488.982,387.525L353.498,295.47
		l-39.386-26.82l174.96-142.258v166.781L488.982,387.525z M21.074,407.263l4.984-3.394L210.3,278.771l22.086,17.879l3.821,2.598
		v0.078c5.961,4.051,12.839,6.039,19.793,6.039c6.874,0,13.832-1.988,19.789-6.039v-0.078l3.594-2.446l0.23-0.152l22.082-17.879
		l184.242,125.098l1.609,1.144l1.555,1.035l1.609,1.286l-1.41,0.355H22.695c-0.539,0-1.054-0.156-1.488-0.34
		C21.164,407.318,21.117,407.302,21.074,407.263z" style="fill: rgb(75, 75, 75);"></path>
</g>
</svg>
