<!--?xml version="1.0" encoding="utf-8"?-->
<!-- Generator: Adobe Illustrator 24.1.1, SVG Export Plug-In . SVG Version: 6.00 Build 0)  -->
<svg version="1.1" id="_x31_0" xmlns="http://www.w3.org/2000/svg" xmlns:xlink="http://www.w3.org/1999/xlink" x="0px" y="0px" viewBox="0 0 512 512" style="width: 256px; height: 256px; opacity: 1;" xml:space="preserve">
<style type="text/css">
	.st0{fill:#374149;}
</style>
<g>
	<path class="st0" d="M68.621,343.683l-17.566,45.438l-6.683,17.282l48.145,48.141l13.082,13.082l17.282-6.683l45.367-17.566
		c1.988,0.934,4.09,1.656,6.113,2.515c1.762,0.754,3.594,1.508,5.434,2.238c1.926,0.758,3.778,1.653,5.734,2.359l19.699,44.516
		L212.691,512h86.614l7.469-16.996l19.695-44.516c2.375-0.867,4.687-1.953,7.039-2.894c1.347-0.543,2.699-1.102,4.023-1.656
		c2.066-0.879,4.172-1.614,6.219-2.562l45.366,17.566l17.282,6.683l13.086-13.082l48.141-48.141l-6.683-17.282l-17.637-45.438
		c2.633-5.621,5.05-11.378,7.183-17.214l44.586-19.695L512,299.309v-86.684l-16.926-7.469l-44.586-19.695
		c-0.816-2.226-1.847-4.363-2.738-6.562c-0.61-1.508-1.246-3.023-1.899-4.547c-0.874-2.023-1.613-4.109-2.546-6.101l17.637-45.442
		l6.683-17.278l-13.086-13.086l-35.055-35.059l-13.086-13.082l-17.282,6.683L343.68,68.55c-2.082-0.972-4.258-1.734-6.375-2.633
		c-1.504-0.644-3.086-1.293-4.668-1.93c-2.066-0.824-4.078-1.785-6.168-2.55l-19.695-44.512L299.305,0h-86.614l-7.465,16.926
		l-19.699,44.512c-2.199,0.797-4.281,1.793-6.442,2.652c-1.812,0.719-3.609,1.461-5.359,2.207c-1.812,0.778-3.699,1.418-5.48,2.254
		l-45.367-17.562l-17.282-6.683L92.516,57.386L57.457,92.446l-13.086,13.086l6.683,17.278l17.566,45.442
		c-2.633,5.617-5.05,11.374-7.113,17.21l-44.516,19.695L0,212.625v86.684l16.922,7.465l44.586,19.695
		C63.57,332.305,65.988,338.062,68.621,343.683z M139.805,256c0-64.215,51.98-116.266,116.266-116.266
		c64.141,0,116.125,52.05,116.125,116.266c0,64.141-51.984,116.195-116.125,116.195C191.785,372.195,139.805,320.141,139.805,256z" style="fill: rgb(75, 75, 75);"></path>
	<path class="st0" d="M256,328.25c39.89,0,72.32-32.43,72.32-72.25c0-39.894-32.43-72.317-72.32-72.317
		c-39.824,0-72.25,32.422-72.25,72.317C183.75,295.82,216.176,328.25,256,328.25z M238.434,220.871
		c5.191,0,9.886,2.278,13.086,5.832c2.844,3.129,4.481,7.254,4.481,11.734c0,9.668-7.824,17.562-17.566,17.562
		c-4.481,0-8.606-1.707-11.66-4.406v-0.074c-3.558-3.199-5.832-7.894-5.832-13.082C220.942,228.766,228.762,220.871,238.434,220.871
		z" style="fill: rgb(75, 75, 75);"></path>
</g>
</svg>
