<!--?xml version="1.0" encoding="utf-8"?-->
<!-- Generator: Adobe Illustrator 18.1.1, SVG Export Plug-In . SVG Version: 6.00 Build 0)  -->

<svg version="1.1" id="_x31_0" xmlns="http://www.w3.org/2000/svg" xmlns:xlink="http://www.w3.org/1999/xlink" x="0px" y="0px" viewBox="0 0 512 512" style="width: 256px; height: 256px; opacity: 1;" xml:space="preserve">
<style type="text/css">
	.st0{fill:#374149;}
</style>
<g>
	<path class="st0" d="M247.248,236.477c0-21.993,0-43.985,0-65.977c0-1.45-0.457-3.914,0-5.313c0.758-2.32-0.106-1.5,3.914-1.922
		c13.054-1.367,26.285-1.91,39.386-0.961c2.274,0.164,4.555,0.398,6.832,0.625c2.446,0.242,4.856,0.523,7.246,0.828
		c4.351,0.559,8.699,1.223,13.027,2.031c2.539,0.477,5.023,1,7.485,1.555c3.933,0.882,7.835,1.867,11.702,2.992
		c2.438,0.711,4.817,1.481,7.168,2.274c3.657,1.234,7.266,2.582,10.817,4.07c2.176,0.91,4.297,1.867,6.39,2.859
		c1.75,0.832,3.52,1.625,5.234,2.523c12.043,6.313,23.289,13.645,33.61,22.52c7.508,6.457,14.094,13.648,20.894,20.781l1.574,1.782
		c0.008-0.035,0.011-0.074,0.019-0.114c0.047,0.051,0.094,0.098,0.141,0.145c3.457-16.391,2.012-33.278-2.793-49.211
		c-0.219-0.738-0.492-1.473-0.726-2.214c-0.59-1.821-1.149-3.653-1.829-5.446c-1.133-3.094-2.367-6.176-3.766-9.23
		c-0.441-0.793-1.125-2.027-2.074-3.738c-0.238-0.465-0.469-0.934-0.711-1.394c2.894,5.195,7.523,13.266-1.286-2.516
		c-0.32-0.527-0.418-0.672-0.43-0.66c-16.301-26.614-38.535-47.934-66.469-62.242c-29.468-15.098-62.332-22.179-95.359-22.007
		c0-14.27,0-28.539,0-42.805l0.094-25.582l-0.094,0.07c0-0.066,0-0.133,0-0.199c-12.445,9.207-80.641,59.645-123.918,91.656
		L87.482,118.11l0.039,0.031c-0.031,0.023-0.106,0.078-0.133,0.098C105.428,131.582,240.619,231.574,247.248,236.477z" style="fill: rgb(75, 75, 75);"></path>
	<path class="st0" d="M424.474,393.863c0.035-0.023,0.11-0.078,0.137-0.102c-10.343-7.648-59.172-43.766-100.226-74.129
		l-59.473-44.11v0.122c-0.039-0.031-0.125-0.094-0.16-0.122c0,21.996,0,43.989,0,65.981c0,1.449,0.457,3.914,0,5.309
		c-0.758,2.32,0.106,1.5-3.914,1.922c-13.055,1.371-26.286,1.914-39.387,0.961c-2.278-0.164-4.566-0.398-6.851-0.625
		c-2.43-0.238-4.825-0.516-7.199-0.824c-4.363-0.559-8.723-1.223-13.066-2.035c-2.524-0.473-4.996-0.996-7.446-1.547
		c-3.942-0.882-7.855-1.871-11.726-2.996c-2.446-0.715-4.828-1.485-7.188-2.282c-3.652-1.23-7.254-2.578-10.801-4.062
		c-2.175-0.91-4.301-1.871-6.39-2.863c-1.75-0.828-3.519-1.621-5.234-2.519c-12.043-6.317-23.289-13.649-33.613-22.524
		c-7.52-6.465-14.114-13.671-20.93-20.82l-1.538-1.738c-0.008,0.035-0.012,0.074-0.02,0.11c-0.042-0.047-0.09-0.094-0.137-0.145
		c-3.457,16.398-2.011,33.286,2.797,49.219c0.211,0.726,0.481,1.445,0.711,2.168c0.594,1.839,1.16,3.687,1.844,5.496
		c1.133,3.094,2.367,6.176,3.766,9.23c0.438,0.793,1.121,2.019,2.066,3.718c0.238,0.465,0.469,0.938,0.714,1.398
		c-2.898-5.191-7.523-13.258,1.286,2.524c0.316,0.523,0.418,0.672,0.43,0.66c16.301,26.61,38.535,47.934,66.465,62.242
		c29.473,15.094,62.336,22.175,95.363,22.003c0,22.84,0,45.68,0,68.516c14.566-10.774,105.461-78.004,143.442-106.094l16.32-12.016
		L424.474,393.863z" style="fill: rgb(75, 75, 75);"></path>
</g>
</svg>
